<?xml version="1.0" standalone="no"?>
<!DOCTYPE svg PUBLIC "-//W3C//DTD SVG 20010904//EN"
 "http://www.w3.org/TR/2001/REC-SVG-20010904/DTD/svg10.dtd">
<svg version="1.0" xmlns="http://www.w3.org/2000/svg"
 width="48.000000pt" height="48.000000pt" viewBox="0 0 48.000000 48.000000"
 preserveAspectRatio="xMidYMid meet">

<g transform="translate(0.000000,48.000000) scale(0.100000,-0.100000)"
fill="#000000" stroke="none">
<path d="M160 378 c-38 -25 -80 -97 -80 -138 0 -41 42 -113 80 -138 29 -20 45
-23 95 -20 69 4 103 24 134 79 27 47 27 111 0 158 -31 55 -65 75 -134 79 -50
3 -66 0 -95 -20z m178 -42 c35 -33 37 -38 37 -96 0 -58 -2 -63 -37 -96 -31
-28 -45 -34 -83 -34 -87 0 -139 49 -139 130 0 81 51 129 137 130 40 0 53 -5
85 -34z"/>
<path d="M204 306 c-3 -7 -4 -42 -2 -77 2 -48 7 -65 18 -67 21 -4 100 58 100
78 0 17 -76 80 -97 80 -8 0 -16 -6 -19 -14z"/>
</g>
</svg>
