<?xml version="1.0" standalone="no"?>
<!DOCTYPE svg PUBLIC "-//W3C//DTD SVG 20010904//EN"
 "http://www.w3.org/TR/2001/REC-SVG-20010904/DTD/svg10.dtd">
<svg version="1.0" xmlns="http://www.w3.org/2000/svg"
 width="48.000000pt" height="48.000000pt" viewBox="0 0 48.000000 48.000000"
 preserveAspectRatio="xMidYMid meet">

<g transform="translate(0.000000,48.000000) scale(0.100000,-0.100000)"
fill="#000000" stroke="none">
<path d="M125 370 c-10 -11 -29 -20 -42 -20 -31 0 -25 -24 7 -28 13 -2 30 -10
37 -18 19 -18 58 -18 76 1 11 10 43 15 113 17 67 2 99 7 102 16 3 9 -21 12
-96 12 -86 0 -101 3 -117 20 -10 11 -28 20 -40 20 -12 0 -30 -9 -40 -20z"/>
<path d="M275 270 c-16 -17 -31 -20 -117 -20 -54 0 -98 -4 -98 -9 0 -16 30
-21 120 -21 66 0 91 -4 100 -15 16 -19 54 -19 69 -1 6 7 25 16 41 20 36 7 40
26 7 26 -13 0 -32 9 -42 20 -10 11 -28 20 -40 20 -12 0 -30 -9 -40 -20z"/>
<path d="M157 176 c-8 -8 -31 -16 -52 -18 -53 -4 -59 -28 -7 -28 26 0 45 -6
57 -20 23 -26 57 -26 80 0 15 17 31 20 102 20 63 0 84 3 81 13 -3 8 -32 13
-87 15 -56 2 -88 8 -98 17 -18 19 -57 19 -76 1z"/>
</g>
</svg>
