<?xml version="1.0" standalone="no"?>
<!DOCTYPE svg PUBLIC "-//W3C//DTD SVG 20010904//EN"
 "http://www.w3.org/TR/2001/REC-SVG-20010904/DTD/svg10.dtd">
<svg version="1.0" xmlns="http://www.w3.org/2000/svg"
 width="48.000000pt" height="48.000000pt" viewBox="0 0 48.000000 48.000000"
 preserveAspectRatio="xMidYMid meet">

<g transform="translate(0.000000,48.000000) scale(0.100000,-0.100000)"
fill="#000000" stroke="none">
<path d="M155 373 c-59 -22 -115 -59 -115 -77 0 -8 7 -19 15 -26 13 -11 19 -9
38 8 73 69 221 69 295 0 21 -21 23 -21 40 -5 23 24 8 45 -59 80 -71 37 -147
44 -214 20z"/>
<path d="M191 279 c-71 -21 -97 -53 -66 -79 12 -10 21 -8 48 9 44 27 90 27
134 0 31 -20 36 -20 50 -6 21 21 12 41 -29 60 -46 22 -97 28 -137 16z"/>
<path d="M190 165 c-11 -13 -9 -20 10 -40 30 -32 50 -32 80 0 19 20 21 27 10
40 -7 8 -29 15 -50 15 -21 0 -43 -7 -50 -15z"/>
</g>
</svg>
